<svg width="33" height="32" viewBox="0 0 33 32" fill="none" xmlns="http://www.w3.org/2000/svg">
<path d="M17.8333 22.689V17.2021C17.8333 17.0085 17.7752 16.8563 17.659 16.7456C17.5483 16.6294 17.3961 16.5713 17.2025 16.5713H14.1893C14.0011 16.5713 13.8462 16.6294 13.7244 16.7456C13.6082 16.8563 13.5501 17.0085 13.5501 17.2021V22.689H17.8333ZM8.37872 22.1909V15.6167L15.202 9.89746C15.534 9.61523 15.866 9.61523 16.1981 9.89746L23.0213 15.6167V22.1909C23.0213 22.772 22.8553 23.223 22.5233 23.5439C22.1968 23.8649 21.743 24.0254 21.1619 24.0254H10.2464C9.65981 24.0254 9.2005 23.8649 8.86847 23.5439C8.54197 23.223 8.37872 22.772 8.37872 22.1909ZM5.78888 14.7866C5.78888 14.5708 5.87742 14.391 6.0545 14.2471L14.7039 6.98389C15.0138 6.7238 15.3458 6.59375 15.7 6.59375C16.0597 6.59375 16.3945 6.7238 16.7044 6.98389L25.3455 14.2471C25.5171 14.391 25.6028 14.5791 25.6028 14.8115C25.6028 15.0107 25.5337 15.1685 25.3953 15.2847C25.257 15.3953 25.091 15.4507 24.8973 15.4507C24.7811 15.4507 24.6732 15.423 24.5735 15.3677C24.4795 15.3123 24.3909 15.2515 24.3079 15.1851L15.9988 8.2124C15.9048 8.12939 15.8052 8.08789 15.7 8.08789C15.6004 8.08789 15.5036 8.12939 15.4095 8.2124L7.1004 15.1851C7.01186 15.2515 6.91779 15.3123 6.81818 15.3677C6.7241 15.423 6.61896 15.4507 6.50275 15.4507C6.28139 15.4507 6.10708 15.3843 5.9798 15.2515C5.85252 15.1131 5.78888 14.9582 5.78888 14.7866ZM20.9378 11.043V8.96777C20.9378 8.78516 20.9931 8.64128 21.1038 8.53613C21.2145 8.42546 21.3584 8.37012 21.5355 8.37012H22.4236C22.6063 8.37012 22.7501 8.42546 22.8553 8.53613C22.966 8.64128 23.0213 8.78516 23.0213 8.96777V12.8027L20.9378 11.043Z" fill="#353535"/>
</svg>
