<svg width="33" height="32" viewBox="0 0 33 32" fill="none" xmlns="http://www.w3.org/2000/svg">
<path d="M12.3828 25.0298C12.6484 24.6147 12.856 24.1637 13.0054 23.6768C13.1548 23.1953 13.2295 22.6945 13.2295 22.1743C13.2295 21.4383 13.0884 20.7466 12.8062 20.0991C12.5295 19.4517 12.1449 18.8817 11.6523 18.3892C11.1598 17.8966 10.5898 17.512 9.94238 17.2354C9.29492 16.9531 8.60319 16.812 7.86719 16.812V14.1807C7.86719 13.3561 8.07747 12.7363 8.49805 12.3213C8.91862 11.9007 9.54948 11.6904 10.3906 11.6904H22.4019C23.2375 11.6904 23.8656 11.9007 24.2861 12.3213C24.7122 12.7363 24.9253 13.3561 24.9253 14.1807V22.5312C24.9253 23.3558 24.7122 23.9784 24.2861 24.3989C23.8656 24.8195 23.2375 25.0298 22.4019 25.0298H12.3828ZM9.45264 10.354C9.51351 9.9777 9.64355 9.68994 9.84277 9.49072C10.042 9.28597 10.3491 9.18359 10.7642 9.18359H22.0366C22.4517 9.18359 22.756 9.28597 22.9497 9.49072C23.1489 9.68994 23.2817 9.9777 23.3481 10.354H9.45264ZM11.1626 8.05469C11.1847 7.70052 11.2954 7.4349 11.4946 7.25781C11.6994 7.0752 11.9927 6.98389 12.3745 6.98389H20.418C20.8053 6.98389 21.0986 7.0752 21.2979 7.25781C21.4971 7.4349 21.6105 7.70052 21.6382 8.05469H11.1626ZM7.87549 26.3911C7.29997 26.3911 6.75765 26.2804 6.24854 26.0591C5.73942 25.8433 5.29118 25.5417 4.90381 25.1543C4.51644 24.7669 4.21208 24.3187 3.99072 23.8096C3.76937 23.3005 3.65869 22.7554 3.65869 22.1743C3.65869 21.5933 3.76937 21.0509 3.99072 20.5474C4.21208 20.0382 4.51644 19.59 4.90381 19.2026C5.29118 18.8097 5.73942 18.5054 6.24854 18.2896C6.75765 18.0682 7.29997 17.9575 7.87549 17.9575C8.45654 17.9575 9.00163 18.0682 9.51074 18.2896C10.0199 18.5054 10.4681 18.807 10.8555 19.1943C11.2428 19.5817 11.5444 20.0299 11.7603 20.5391C11.9816 21.0482 12.0923 21.5933 12.0923 22.1743C12.0923 22.7498 11.9816 23.2922 11.7603 23.8013C11.5389 24.3104 11.2318 24.7586 10.8389 25.146C10.4515 25.5334 10.0033 25.8377 9.49414 26.0591C8.98503 26.2804 8.44548 26.3911 7.87549 26.3911ZM6.50586 23.8511C6.50586 24.0226 6.57503 24.1388 6.71338 24.1997C6.85726 24.2606 7.00391 24.2467 7.15332 24.1582L9.91748 22.5312C10.0669 22.4427 10.1361 22.3182 10.125 22.1577C10.1139 22.0028 10.0282 21.8783 9.86768 21.7842L7.15332 20.1738C7.00391 20.0853 6.85726 20.0742 6.71338 20.1406C6.57503 20.2015 6.50586 20.3177 6.50586 20.4893V23.8511Z" fill="#353535"/>
</svg>
