<svg width="33" height="32" viewBox="0 0 33 32" fill="none" xmlns="http://www.w3.org/2000/svg">
<path d="M15.4619 24.8804C15.141 24.8804 14.8643 24.7891 14.6318 24.6064C14.4049 24.4294 14.2555 24.1859 14.1836 23.876L13.8184 22.3237L13.5527 22.2324L12.208 23.0625C11.9368 23.234 11.6546 23.3005 11.3613 23.2617C11.068 23.223 10.8079 23.0902 10.5811 22.8633L9.42725 21.7095C9.19482 21.4826 9.05924 21.2225 9.02051 20.9292C8.9873 20.6359 9.05648 20.3564 9.22803 20.0908L10.0664 18.7461L9.9751 18.4971L8.42285 18.1318C8.11849 18.0599 7.875 17.9077 7.69238 17.6753C7.50977 17.4429 7.41846 17.1689 7.41846 16.8535V15.21C7.41846 14.8945 7.507 14.6206 7.68408 14.3882C7.8667 14.1558 8.11296 14.0036 8.42285 13.9316L9.9585 13.5581L10.0581 13.2925L9.21973 11.9478C9.04818 11.6821 8.979 11.4054 9.01221 11.1177C9.05094 10.8244 9.18652 10.5615 9.41895 10.3291L10.5728 9.16699C10.7996 8.94564 11.057 8.81559 11.3447 8.77686C11.638 8.73812 11.9202 8.80176 12.1914 8.96777L13.5361 9.79785L13.8184 9.68994L14.1836 8.1377C14.2555 7.83333 14.4049 7.58984 14.6318 7.40723C14.8643 7.22461 15.141 7.1333 15.4619 7.1333H17.1387C17.4596 7.1333 17.7336 7.22461 17.9604 7.40723C18.1929 7.58984 18.3451 7.83333 18.417 8.1377L18.7739 9.68994L19.0562 9.79785L20.4092 8.96777C20.6748 8.80176 20.9543 8.73812 21.2476 8.77686C21.5409 8.81559 21.7982 8.94564 22.0195 9.16699L23.1816 10.3291C23.4085 10.5615 23.5413 10.8244 23.5801 11.1177C23.6188 11.4054 23.5524 11.6821 23.3809 11.9478L22.5342 13.2925L22.6421 13.5581L24.1777 13.9316C24.4821 14.0036 24.7256 14.1558 24.9082 14.3882C25.0908 14.6206 25.1821 14.8945 25.1821 15.21V16.8535C25.1821 17.1689 25.0908 17.4429 24.9082 17.6753C24.7256 17.9077 24.4821 18.0599 24.1777 18.1318L22.6255 18.4971L22.5259 18.7461L23.3726 20.0908C23.5441 20.3564 23.6105 20.6359 23.5718 20.9292C23.533 21.2225 23.4002 21.4826 23.1733 21.7095L22.0112 22.8633C21.7843 23.0902 21.5243 23.223 21.231 23.2617C20.9377 23.3005 20.6582 23.234 20.3926 23.0625L19.0396 22.2324L18.7739 22.3237L18.417 23.876C18.3451 24.1859 18.1929 24.4294 17.9604 24.6064C17.7336 24.7891 17.4596 24.8804 17.1387 24.8804H15.4619ZM15.5947 23.5854H17.0059C17.1442 23.5854 17.2217 23.5218 17.2383 23.3945L17.7446 21.3359C17.9992 21.2751 18.2399 21.1976 18.4668 21.1035C18.6937 21.0039 18.8957 20.8988 19.0728 20.7881L20.8823 21.9004C20.9875 21.9723 21.0926 21.9585 21.1978 21.8589L22.1689 20.8794C22.263 20.7964 22.2741 20.694 22.2021 20.5723L21.0898 18.7793C21.1895 18.6022 21.2863 18.4002 21.3804 18.1733C21.48 17.9465 21.563 17.7057 21.6294 17.4512L23.6963 16.9614C23.8236 16.9393 23.8872 16.859 23.8872 16.7207V15.3345C23.8872 15.2017 23.8236 15.1214 23.6963 15.0938L21.6377 14.5957C21.5713 14.3245 21.4855 14.0728 21.3804 13.8403C21.2752 13.6079 21.1839 13.4142 21.1064 13.2593L22.2104 11.4663C22.2879 11.3446 22.2796 11.2367 22.1855 11.1426L21.2061 10.1797C21.1064 10.0911 20.9985 10.0773 20.8823 10.1382L19.0811 11.2339C18.8984 11.1343 18.6937 11.0374 18.4668 10.9434C18.2454 10.8438 18.0047 10.7607 17.7446 10.6943L17.2383 8.61914C17.2217 8.49186 17.1442 8.42822 17.0059 8.42822H15.5947C15.4564 8.42822 15.3761 8.49186 15.354 8.61914L14.8643 10.6777C14.6152 10.7441 14.369 10.8271 14.1255 10.9268C13.8875 11.0264 13.68 11.126 13.5029 11.2256L11.71 10.1382C11.5993 10.0773 11.4941 10.0911 11.3945 10.1797L10.4067 11.1426C10.3182 11.2367 10.3099 11.3446 10.3818 11.4663L11.4858 13.2593C11.4139 13.4142 11.3226 13.6079 11.2119 13.8403C11.1068 14.0728 11.021 14.3245 10.9546 14.5957L8.9043 15.0938C8.77702 15.1214 8.71338 15.2017 8.71338 15.3345V16.7207C8.71338 16.859 8.77702 16.9393 8.9043 16.9614L10.9629 17.4512C11.0293 17.7057 11.1123 17.9465 11.2119 18.1733C11.3115 18.4002 11.4084 18.6022 11.5024 18.7793L10.3901 20.5723C10.3237 20.694 10.3348 20.7964 10.4233 20.8794L11.4028 21.8589C11.508 21.9585 11.6104 21.9723 11.71 21.9004L13.5195 20.7881C13.6966 20.8988 13.8986 21.0039 14.1255 21.1035C14.3579 21.1976 14.6014 21.2751 14.856 21.3359L15.354 23.3945C15.3761 23.5218 15.4564 23.5854 15.5947 23.5854ZM16.3003 19.1777C15.7192 19.1777 15.188 19.0339 14.7065 18.7461C14.2306 18.4583 13.8488 18.0765 13.561 17.6006C13.2733 17.1191 13.1294 16.5879 13.1294 16.0068C13.1294 15.4313 13.2733 14.9056 13.561 14.4297C13.8488 13.9482 14.2306 13.5664 14.7065 13.2842C15.188 12.9964 15.7192 12.8525 16.3003 12.8525C16.8813 12.8525 17.4098 12.9964 17.8857 13.2842C18.3672 13.5664 18.749 13.9482 19.0312 14.4297C19.319 14.9056 19.4629 15.4313 19.4629 16.0068C19.4629 16.5879 19.319 17.1191 19.0312 17.6006C18.749 18.082 18.3672 18.4666 17.8857 18.7544C17.4098 19.0366 16.8813 19.1777 16.3003 19.1777ZM16.3003 17.8911C16.6379 17.8911 16.9478 17.8053 17.23 17.6338C17.5122 17.4622 17.7363 17.2354 17.9023 16.9531C18.0739 16.6654 18.1597 16.3499 18.1597 16.0068C18.1597 15.6637 18.0739 15.3511 17.9023 15.0688C17.7363 14.7866 17.5122 14.5625 17.23 14.3965C16.9478 14.2249 16.6379 14.1392 16.3003 14.1392C15.9572 14.1392 15.6418 14.2249 15.354 14.3965C15.0718 14.5625 14.8449 14.7866 14.6733 15.0688C14.5073 15.3511 14.4243 15.6637 14.4243 16.0068C14.4243 16.3555 14.5073 16.6737 14.6733 16.9614C14.8449 17.2437 15.0718 17.4705 15.354 17.6421C15.6418 17.8081 15.9572 17.8911 16.3003 17.8911Z" fill="#353535"/>
</svg>
