<svg width="32" height="32" viewBox="0 0 32 32" fill="none" xmlns="http://www.w3.org/2000/svg">
<path d="M7.34229 23.0708C7.34229 22.8882 7.40869 22.7305 7.5415 22.5977C7.67432 22.4704 7.82926 22.4067 8.00635 22.4067H23.9854C24.168 22.4067 24.3257 22.4704 24.4585 22.5977C24.5913 22.7305 24.6577 22.8882 24.6577 23.0708C24.6577 23.259 24.5913 23.4167 24.4585 23.5439C24.3257 23.6712 24.168 23.7349 23.9854 23.7349H8.00635C7.82926 23.7349 7.67432 23.6712 7.5415 23.5439C7.40869 23.4167 7.34229 23.259 7.34229 23.0708ZM8.00635 20.5142V13.6494C8.00635 13.4336 8.06999 13.2648 8.19727 13.1431C8.33008 13.0158 8.50993 12.9521 8.73682 12.9521H10.5464C10.7677 12.9521 10.9421 13.0158 11.0693 13.1431C11.2021 13.2648 11.2686 13.4336 11.2686 13.6494V20.5142C11.2686 20.73 11.2021 20.8988 11.0693 21.0205C10.9421 21.1423 10.7677 21.2031 10.5464 21.2031H8.73682C8.50993 21.2031 8.33008 21.1423 8.19727 21.0205C8.06999 20.8988 8.00635 20.73 8.00635 20.5142ZM12.2397 20.5142V10.0552C12.2397 9.83936 12.3034 9.67057 12.4307 9.54883C12.5635 9.42708 12.7433 9.36621 12.9702 9.36621H14.7798C15.0011 9.36621 15.1782 9.42708 15.311 9.54883C15.4438 9.67057 15.5103 9.83936 15.5103 10.0552V20.5142C15.5103 20.73 15.4438 20.8988 15.311 21.0205C15.1782 21.1423 15.0011 21.2031 14.7798 21.2031H12.9702C12.7433 21.2031 12.5635 21.1423 12.4307 21.0205C12.3034 20.8988 12.2397 20.73 12.2397 20.5142ZM16.4814 20.5142V11.8481C16.4814 11.6268 16.5451 11.4552 16.6724 11.3335C16.8052 11.2118 16.9823 11.1509 17.2036 11.1509H19.0215C19.2428 11.1509 19.4172 11.2118 19.5444 11.3335C19.6772 11.4552 19.7437 11.6268 19.7437 11.8481V20.5142C19.7437 20.73 19.6772 20.8988 19.5444 21.0205C19.4172 21.1423 19.2428 21.2031 19.0215 21.2031H17.2036C16.9823 21.2031 16.8052 21.1423 16.6724 21.0205C16.5451 20.8988 16.4814 20.73 16.4814 20.5142ZM20.7148 20.5142V15.3926C20.7148 15.1768 20.7785 15.008 20.9058 14.8862C21.0386 14.759 21.2184 14.6953 21.4453 14.6953H23.2549C23.4762 14.6953 23.6533 14.759 23.7861 14.8862C23.9189 15.008 23.9854 15.1768 23.9854 15.3926V20.5142C23.9854 20.73 23.9189 20.8988 23.7861 21.0205C23.6533 21.1423 23.4762 21.2031 23.2549 21.2031H21.4453C21.2184 21.2031 21.0386 21.1423 20.9058 21.0205C20.7785 20.8988 20.7148 20.73 20.7148 20.5142Z" fill="#353535"/>
</svg>
