<svg width="33" height="32" viewBox="0 0 33 32" fill="none" xmlns="http://www.w3.org/2000/svg">
<path d="M13.597 14.5127C13.4089 14.5127 13.2429 14.4435 13.099 14.3052C12.9607 14.1613 12.8915 13.9953 12.8915 13.8071C12.8915 13.6134 12.9607 13.4474 13.099 13.3091C13.2429 13.1707 13.4089 13.1016 13.597 13.1016C13.7907 13.1016 13.9567 13.1707 14.0951 13.3091C14.2334 13.4419 14.3026 13.6079 14.3026 13.8071C14.3026 14.0008 14.2334 14.1668 14.0951 14.3052C13.9567 14.4435 13.7907 14.5127 13.597 14.5127ZM13.597 17.4512C13.4034 17.4512 13.2373 17.3848 13.099 17.252C12.9607 17.1136 12.8915 16.9448 12.8915 16.7456C12.8915 16.5575 12.9607 16.3942 13.099 16.2559C13.2373 16.1175 13.4034 16.0483 13.597 16.0483C13.7907 16.0483 13.9567 16.1175 14.0951 16.2559C14.2334 16.3887 14.3026 16.5519 14.3026 16.7456C14.3026 16.9448 14.2334 17.1136 14.0951 17.252C13.9567 17.3848 13.7907 17.4512 13.597 17.4512ZM13.597 20.564C13.4089 20.564 13.2429 20.4948 13.099 20.3564C12.9607 20.2126 12.8915 20.0465 12.8915 19.8584C12.8915 19.6647 12.9607 19.4987 13.099 19.3604C13.2429 19.222 13.4089 19.1528 13.597 19.1528C13.7907 19.1528 13.9567 19.222 14.0951 19.3604C14.2334 19.4932 14.3026 19.6592 14.3026 19.8584C14.3026 20.0521 14.2334 20.2181 14.0951 20.3564C13.9567 20.4948 13.7907 20.564 13.597 20.564ZM15.8134 14.3218C15.6695 14.3218 15.545 14.272 15.4398 14.1724C15.3402 14.0672 15.2904 13.9455 15.2904 13.8071C15.2904 13.6632 15.3402 13.5415 15.4398 13.4419C15.545 13.3368 15.6695 13.2842 15.8134 13.2842H20.7938C20.9322 13.2842 21.0511 13.3368 21.1508 13.4419C21.2559 13.5415 21.3085 13.6632 21.3085 13.8071C21.3085 13.9455 21.2559 14.0672 21.1508 14.1724C21.0511 14.272 20.9322 14.3218 20.7938 14.3218H15.8134ZM15.8134 17.2686C15.6639 17.2686 15.5394 17.2188 15.4398 17.1191C15.3402 17.014 15.2904 16.8895 15.2904 16.7456C15.2904 16.6073 15.3402 16.4883 15.4398 16.3887C15.5394 16.2891 15.6639 16.2393 15.8134 16.2393H20.7938C20.9377 16.2393 21.0594 16.2891 21.1591 16.3887C21.2587 16.4883 21.3085 16.6073 21.3085 16.7456C21.3085 16.8895 21.2587 17.014 21.1591 17.1191C21.0594 17.2188 20.9377 17.2686 20.7938 17.2686H15.8134ZM15.8134 20.373C15.6695 20.373 15.545 20.3232 15.4398 20.2236C15.3402 20.1185 15.2904 19.9967 15.2904 19.8584C15.2904 19.7145 15.3402 19.5928 15.4398 19.4932C15.5394 19.3936 15.6639 19.3438 15.8134 19.3438H20.7938C20.9377 19.3438 21.0594 19.3936 21.1591 19.4932C21.2587 19.5928 21.3085 19.7145 21.3085 19.8584C21.3085 19.9967 21.2559 20.1185 21.1508 20.2236C21.0511 20.3232 20.9322 20.373 20.7938 20.373H15.8134ZM12.6923 25.5859C11.8345 25.5859 11.1898 25.3674 10.7582 24.9302C10.3321 24.4985 10.119 23.8483 10.119 22.9795V10.3955C10.119 9.54329 10.3238 8.89583 10.7333 8.45312C11.1483 8.01042 11.7709 7.78906 12.601 7.78906H12.8002C12.7946 7.82227 12.7919 7.85824 12.7919 7.89697C12.7919 7.93018 12.7919 7.96338 12.7919 7.99658V8.74365C12.7919 8.8986 12.8029 9.02588 12.8251 9.12549H12.6259C12.2385 9.12549 11.9452 9.2417 11.746 9.47412C11.5523 9.70654 11.4554 10.0192 11.4554 10.4121V22.9629C11.4554 23.3779 11.5634 23.6961 11.7792 23.9175C12.0005 24.1388 12.327 24.2495 12.7587 24.2495H21.4413C21.8729 24.2495 22.1967 24.1388 22.4125 23.9175C22.6338 23.6961 22.7445 23.3779 22.7445 22.9629V10.4121C22.7445 10.0192 22.6449 9.70654 22.4457 9.47412C22.252 9.2417 21.9615 9.12549 21.5741 9.12549H21.3749C21.397 9.02588 21.4081 8.8986 21.4081 8.74365V7.99658C21.4081 7.96338 21.4081 7.93018 21.4081 7.89697C21.4081 7.85824 21.4053 7.82227 21.3998 7.78906H21.599C22.4291 7.78906 23.0489 8.01042 23.4584 8.45312C23.8734 8.89583 24.0809 9.54329 24.0809 10.3955V22.9795C24.0809 23.8483 23.8651 24.4985 23.4335 24.9302C23.0074 25.3674 22.3654 25.5859 21.5077 25.5859H12.6923ZM14.535 9.68994C14.2915 9.68994 14.1006 9.618 13.9623 9.47412C13.8295 9.33024 13.7631 9.12826 13.7631 8.86816V7.99658C13.7631 7.73649 13.8295 7.53451 13.9623 7.39062C14.1006 7.24674 14.2915 7.1748 14.535 7.1748H15.2987C15.3264 6.70443 15.5118 6.30322 15.8549 5.97119C16.2035 5.63916 16.6185 5.47314 17.1 5.47314C17.5814 5.47314 17.9937 5.63916 18.3368 5.97119C18.6854 6.30322 18.8736 6.70443 18.9012 7.1748H19.6649C19.9084 7.1748 20.0966 7.24674 20.2294 7.39062C20.3677 7.53451 20.4369 7.73649 20.4369 7.99658V8.86816C20.4369 9.12826 20.3677 9.33024 20.2294 9.47412C20.0966 9.618 19.9084 9.68994 19.6649 9.68994H14.535ZM17.1 7.96338C17.2992 7.96338 17.468 7.89144 17.6063 7.74756C17.7502 7.60368 17.8221 7.4349 17.8221 7.24121C17.8221 7.03646 17.7502 6.86491 17.6063 6.72656C17.468 6.58268 17.2992 6.51074 17.1 6.51074C16.9008 6.51074 16.7292 6.58268 16.5853 6.72656C16.447 6.86491 16.3778 7.03646 16.3778 7.24121C16.3778 7.4349 16.447 7.60368 16.5853 7.74756C16.7292 7.89144 16.9008 7.96338 17.1 7.96338Z" fill="#353535"/>
</svg>
