<svg width="32" height="33" viewBox="0 0 32 33" fill="none" xmlns="http://www.w3.org/2000/svg">
<path d="M12.9971 15.0127C12.8089 15.0127 12.6429 14.9435 12.499 14.8052C12.3607 14.6613 12.2915 14.4953 12.2915 14.3071C12.2915 14.1134 12.3607 13.9474 12.499 13.8091C12.6429 13.6707 12.8089 13.6016 12.9971 13.6016C13.1908 13.6016 13.3568 13.6707 13.4951 13.8091C13.6335 13.9419 13.7026 14.1079 13.7026 14.3071C13.7026 14.5008 13.6335 14.6668 13.4951 14.8052C13.3568 14.9435 13.1908 15.0127 12.9971 15.0127ZM12.9971 17.9512C12.8034 17.9512 12.6374 17.8848 12.499 17.752C12.3607 17.6136 12.2915 17.4448 12.2915 17.2456C12.2915 17.0575 12.3607 16.8942 12.499 16.7559C12.6374 16.6175 12.8034 16.5483 12.9971 16.5483C13.1908 16.5483 13.3568 16.6175 13.4951 16.7559C13.6335 16.8887 13.7026 17.0519 13.7026 17.2456C13.7026 17.4448 13.6335 17.6136 13.4951 17.752C13.3568 17.8848 13.1908 17.9512 12.9971 17.9512ZM12.9971 21.064C12.8089 21.064 12.6429 20.9948 12.499 20.8564C12.3607 20.7126 12.2915 20.5465 12.2915 20.3584C12.2915 20.1647 12.3607 19.9987 12.499 19.8604C12.6429 19.722 12.8089 19.6528 12.9971 19.6528C13.1908 19.6528 13.3568 19.722 13.4951 19.8604C13.6335 19.9932 13.7026 20.1592 13.7026 20.3584C13.7026 20.5521 13.6335 20.7181 13.4951 20.8564C13.3568 20.9948 13.1908 21.064 12.9971 21.064ZM15.2134 14.8218C15.0695 14.8218 14.945 14.772 14.8398 14.6724C14.7402 14.5672 14.6904 14.4455 14.6904 14.3071C14.6904 14.1632 14.7402 14.0415 14.8398 13.9419C14.945 13.8368 15.0695 13.7842 15.2134 13.7842H20.1938C20.3322 13.7842 20.4512 13.8368 20.5508 13.9419C20.6559 14.0415 20.7085 14.1632 20.7085 14.3071C20.7085 14.4455 20.6559 14.5672 20.5508 14.6724C20.4512 14.772 20.3322 14.8218 20.1938 14.8218H15.2134ZM15.2134 17.7686C15.064 17.7686 14.9395 17.7188 14.8398 17.6191C14.7402 17.514 14.6904 17.3895 14.6904 17.2456C14.6904 17.1073 14.7402 16.9883 14.8398 16.8887C14.9395 16.7891 15.064 16.7393 15.2134 16.7393H20.1938C20.3377 16.7393 20.4595 16.7891 20.5591 16.8887C20.6587 16.9883 20.7085 17.1073 20.7085 17.2456C20.7085 17.3895 20.6587 17.514 20.5591 17.6191C20.4595 17.7188 20.3377 17.7686 20.1938 17.7686H15.2134ZM15.2134 20.873C15.0695 20.873 14.945 20.8232 14.8398 20.7236C14.7402 20.6185 14.6904 20.4967 14.6904 20.3584C14.6904 20.2145 14.7402 20.0928 14.8398 19.9932C14.9395 19.8936 15.064 19.8438 15.2134 19.8438H20.1938C20.3377 19.8438 20.4595 19.8936 20.5591 19.9932C20.6587 20.0928 20.7085 20.2145 20.7085 20.3584C20.7085 20.4967 20.6559 20.6185 20.5508 20.7236C20.4512 20.8232 20.3322 20.873 20.1938 20.873H15.2134ZM12.0923 26.0859C11.2345 26.0859 10.5898 25.8674 10.1582 25.4302C9.7321 24.9985 9.51904 24.3483 9.51904 23.4795V10.8955C9.51904 10.0433 9.7238 9.39583 10.1333 8.95312C10.5483 8.51042 11.1709 8.28906 12.001 8.28906H12.2002C12.1947 8.32227 12.1919 8.35824 12.1919 8.39697C12.1919 8.43018 12.1919 8.46338 12.1919 8.49658V9.24365C12.1919 9.3986 12.203 9.52588 12.2251 9.62549H12.0259C11.6385 9.62549 11.3452 9.7417 11.146 9.97412C10.9523 10.2065 10.8555 10.5192 10.8555 10.9121V23.4629C10.8555 23.8779 10.9634 24.1961 11.1792 24.4175C11.4006 24.6388 11.7271 24.7495 12.1587 24.7495H20.8413C21.2729 24.7495 21.5967 24.6388 21.8125 24.4175C22.0339 24.1961 22.1445 23.8779 22.1445 23.4629V10.9121C22.1445 10.5192 22.0449 10.2065 21.8457 9.97412C21.652 9.7417 21.3615 9.62549 20.9741 9.62549H20.7749C20.797 9.52588 20.8081 9.3986 20.8081 9.24365V8.49658C20.8081 8.46338 20.8081 8.43018 20.8081 8.39697C20.8081 8.35824 20.8053 8.32227 20.7998 8.28906H20.999C21.8291 8.28906 22.4489 8.51042 22.8584 8.95312C23.2734 9.39583 23.481 10.0433 23.481 10.8955V23.4795C23.481 24.3483 23.2651 24.9985 22.8335 25.4302C22.4074 25.8674 21.7655 26.0859 20.9077 26.0859H12.0923ZM13.9351 10.1899C13.6916 10.1899 13.5007 10.118 13.3623 9.97412C13.2295 9.83024 13.1631 9.62826 13.1631 9.36816V8.49658C13.1631 8.23649 13.2295 8.03451 13.3623 7.89062C13.5007 7.74674 13.6916 7.6748 13.9351 7.6748H14.6987C14.7264 7.20443 14.9118 6.80322 15.2549 6.47119C15.6035 6.13916 16.0186 5.97314 16.5 5.97314C16.9814 5.97314 17.3937 6.13916 17.7368 6.47119C18.0854 6.80322 18.2736 7.20443 18.3013 7.6748H19.0649C19.3084 7.6748 19.4966 7.74674 19.6294 7.89062C19.7677 8.03451 19.8369 8.23649 19.8369 8.49658V9.36816C19.8369 9.62826 19.7677 9.83024 19.6294 9.97412C19.4966 10.118 19.3084 10.1899 19.0649 10.1899H13.9351ZM16.5 8.46338C16.6992 8.46338 16.868 8.39144 17.0063 8.24756C17.1502 8.10368 17.2222 7.9349 17.2222 7.74121C17.2222 7.53646 17.1502 7.36491 17.0063 7.22656C16.868 7.08268 16.6992 7.01074 16.5 7.01074C16.3008 7.01074 16.1292 7.08268 15.9854 7.22656C15.847 7.36491 15.7778 7.53646 15.7778 7.74121C15.7778 7.9349 15.847 8.10368 15.9854 8.24756C16.1292 8.39144 16.3008 8.46338 16.5 8.46338Z" fill="black"/>
</svg>
